# xmcd
#
# Track frame offsets:
#	150
#	18235
#	33933
#	54199
#	73713
#	90355
#	107874
#	123270
#	134349
#	153366
#	168677
#	207006
#
# Disc length: 2766 seconds
#
# Revision: 1
# Processed by: cddbd v1.5.2PL0 Copyright (c) Steve Scherf et al.
# Submitted via: audiograbber 1.83.01
#
DISCID=950acc0c
DTITLE=BarlowGirl - BarlowGirl
DYEAR=2004
DGENRE=Christian Rock
TTITLE0=On My Own
TTITLE1=Pedestal
TTITLE2=Never Alone
TTITLE3=Harder Than The First Time
TTITLE4=You Led Me
TTITLE5=Mirror
TTITLE6=Superstar
TTITLE7=Clothes
TTITLE8=She Walked Away
TTITLE9=Average Girl
TTITLE10=Surrender
TTITLE11=Data Track
EXTD=
EXTT0=
EXTT1=
EXTT2=
EXTT3=
EXTT4=
EXTT5=
EXTT6=
EXTT7=
EXTT8=
EXTT9=
EXTT10=
EXTT11=
PLAYORDER=
